HIERARCHY
ROOT joint_Root
{
  OFFSET 0 0 0
  CHANNELS 6 Xposition Yposition Zposition Zrotation Xrotation Yrotation
  JOINT Hips
  {
    OFFSET 0 93.9241 -3
    CHANNELS 6 Xposition Yposition Zposition Zrotation Xrotation Yrotation
    JOINT Spine
    {
      OFFSET 15.7357 0 0
      CHANNELS 6 Xposition Yposition Zposition Zrotation Xrotation Yrotation
      JOINT Chest
      {
        OFFSET 8.98455 -0.406207 0
        CHANNELS 6 Xposition Yposition Zposition Zrotation Xrotation Yrotation
        JOINT Neck
        {
          OFFSET 16.3773 0 0
          CHANNELS 6 Xposition Yposition Zposition Zrotation Xrotation Yrotation
          JOINT Head
          {
            OFFSET 6.45672 0 0
            CHANNELS 6 Xposition Yposition Zposition Zrotation Xrotation Yrotation
            End Site
            {
              OFFSET 0 0 0
            }
          }
        }
        JOINT Shoulder_L
        {
          OFFSET 12.9942 -0.242716 4.98039
          CHANNELS 6 Xposition Yposition Zposition Zrotation Xrotation Yrotation
          JOINT UpperArm_L
          {
            OFFSET 5.34809 0 0
            CHANNELS 6 Xposition Yposition Zposition Zrotation Xrotation Yrotation
            JOINT LowerArm_L
            {
              OFFSET 24.3286 1.87007e-05 0
              CHANNELS 6 Xposition Yposition Zposition Zrotation Xrotation Yrotation
              JOINT Hand_L
              {
                OFFSET 22.2916 0 0
                CHANNELS 6 Xposition Yposition Zposition Zrotation Xrotation Yrotation
                End Site
                {
                  OFFSET 0 0 0
                }
              }
            }
          }
        }
        JOINT Shoulder_R
        {
          OFFSET 12.9945 -0.242716 -4.98039
          CHANNELS 6 Xposition Yposition Zposition Zrotation Xrotation Yrotation
          JOINT UpperArm_R
          {
            OFFSET -5.34813 0 0
            CHANNELS 6 Xposition Yposition Zposition Zrotation Xrotation Yrotation
            JOINT LowerArm_R
            {
              OFFSET -24.3289 0.000322201 0
              CHANNELS 6 Xposition Yposition Zposition Zrotation Xrotation Yrotation
              JOINT Hand_R
              {
                OFFSET -22.2915 -0.000108084 0
                CHANNELS 6 Xposition Yposition Zposition Zrotation Xrotation Yrotation
                End Site
                {
                  OFFSET 0 0 0
                }
              }
            }
          }
        }
      }
    }
    JOINT UpperLeg_L
    {
      OFFSET -2.19248 -6.46944 0
      CHANNELS 6 Xposition Yposition Zposition Zrotation Xrotation Yrotation
      JOINT LowerLeg_L
      {
        OFFSET 39.0811 0 -1.23785e-05
        CHANNELS 6 Xposition Yposition Zposition Zrotation Xrotation Yrotation
        JOINT Foot_L
        {
          OFFSET 40.9854 0 -1.26872e-05
          CHANNELS 6 Xposition Yposition Zposition Zrotation Xrotation Yrotation
          JOINT Toes_L
          {
            OFFSET 11.7543 0 0
            CHANNELS 6 Xposition Yposition Zposition Zrotation Xrotation Yrotation
            End Site
            {
              OFFSET 0 0 0
            }
          }
        }
      }
    }
    JOINT UpperLeg_R
    {
      OFFSET -2.19251 6.46944 0
      CHANNELS 6 Xposition Yposition Zposition Zrotation Xrotation Yrotation
      JOINT LowerLeg_R
      {
        OFFSET -39.0811 -0.00228153 -0.0401928
        CHANNELS 6 Xposition Yposition Zposition Zrotation Xrotation Yrotation
        JOINT Foot_R
        {
          OFFSET -40.9854 0 0
          CHANNELS 6 Xposition Yposition Zposition Zrotation Xrotation Yrotation
          JOINT Toes_R
          {
            OFFSET -11.7543 0 0
            CHANNELS 6 Xposition Yposition Zposition Zrotation Xrotation Yrotation
            End Site
            {
              OFFSET 0 0 0
            }
          }
        }
      }
    }
  }
}
MOTION
Frames:	5
Frame Time:	0.0333333
0 0 0 0 0 -0 -167.86 84.6687 -430.686 84.7431 0.382898 -6.94554 15.7357 5.1072e-06 -5.51764e-07 114.728 80.829 -112.47 8.98455 -0.406207 -4.3199e-07 8.80484 7.65399 3.92643 16.3773 -1.3905e-06 -6.99897e-07 -15.0539 2.64517 -8.53009 6.45672 -1.25837e-06 -1.02172e-07 -8.42276 -8.27921 -11.0197 12.9942 -0.242716 4.98039 -90.05 0.241993 -93.4579 5.34809 -7.22636e-06 -6.2814e-07 -75.3229 19.4638 11.1928 24.3286 1.87007e-05 4.90208e-06 32.3446 -15.9161 -113.416 22.2916 -9.88446e-07 4.63217e-06 20.8123 5.37215 -2.06146 12.9945 -0.242716 -4.98039 89.974 1.31674 -103.879 -5.34813 -1.25947e-06 -3.79883e-06 -62.8083 17.2173 -7.16881 -24.3289 0.000322201 -8.65921e-06 13.5638 -4.91788 -109.559 -22.2915 -0.000108084 -4.47941e-06 54.4485 5.66054 -16.1847 -2.19248 -6.46944 -1.22533e-07 -171.556 8.26394 -52.7987 39.0811 -6.73843e-06 -1.23785e-05 -0.729477 -0.458199 120.607 40.9854 -6.48686e-06 -1.26872e-05 2.58248 0.00985395 -33.2538 11.7543 -2.30145e-07 3.05095e-06 0.448882 -0.545011 -21.7231 -2.19251 6.46944 -1.45247e-06 -168.906 7.59023 159.528 -39.0811 -0.00228153 -0.0401928 0.0775174 -0.00666592 47.9704 -40.9854 7.72618e-06 5.99936e-06 1.17124 -7.94831 -85.7031 -11.7543 -5.6619e-06 -5.58687e-06 0.109658 -0.115211 -17.4593 
0 0 0 0 0 -0 -167.337 85.2106 -424.218 87.5412 -1.27151 -8.21185 15.7357 5.1072e-06 -5.51765e-07 124.236 80.7418 -123.065 8.98455 -0.406207 -4.3199e-07 7.52962 10.3745 1.65999 16.3773 -1.3905e-06 -6.99897e-07 -13.8934 6.60538 -6.1131 6.45672 -1.25837e-06 -1.02172e-07 -6.59254 -4.78513 -10.3243 12.9942 -0.242716 4.98039 -89.9351 -0.220479 -88.8044 5.34809 -7.22636e-06 -6.2814e-07 -73.2555 13.5871 25.8285 24.3286 1.87007e-05 4.90208e-06 28.23 -14.3676 -114.806 22.2916 -9.88446e-07 4.63217e-06 22.7984 5.33292 -0.880435 12.9945 -0.242716 -4.98039 89.9434 -1.5306 -107.085 -5.34813 -1.25947e-06 -3.79883e-06 -62.7108 9.55424 -21.6347 -24.3289 0.000322201 -8.65921e-06 19.8523 -8.38388 -111.981 -22.2915 -0.000108084 -4.47941e-06 46.9656 5.66369 -16.4537 -2.19248 -6.46944 -1.22534e-07 -176.959 7.11345 -60.7609 39.0811 -6.73843e-06 -1.23785e-05 -0.926015 -0.573793 120.612 40.9854 -6.48686e-06 -1.26872e-05 8.56089 -8.89155 -41.6714 11.7543 -2.30144e-07 3.05095e-06 0.441046 -0.534585 -21.6281 -2.19251 6.46944 -1.45247e-06 -173.301 9.03255 166.135 -39.0811 -0.00228153 -0.0401928 0.105409 -0.0534456 42.2595 -40.9854 7.72618e-06 5.99936e-06 1.38887 -4.75964 -87.1965 -11.7543 -5.6619e-06 -5.58687e-06 0.190155 -0.202106 -18.1187 
0 0 0 0 0 -0 -166.531 87.6587 -417.038 91.7172 -1.6468 -11.0091 15.7357 5.1072e-06 -5.51765e-07 138.216 81.1603 -138.886 8.98455 -0.406207 -4.3199e-07 4.18342 13.184 -1.8261 16.3773 -1.3905e-06 -6.99897e-07 -11.7267 7.61099 -3.44092 6.45672 -1.25837e-06 -1.02172e-07 -4.01455 -3.23536 -6.80071 12.9942 -0.242716 4.98039 -89.0983 -2.44581 -84.7664 5.34809 -7.22636e-06 -6.2814e-07 -67.5928 11.1795 35.1553 24.3286 1.87007e-05 4.90208e-06 28.1412 -15.0473 -115.892 22.2916 -9.88446e-07 4.63217e-06 22.1661 5.33626 -0.971731 12.9945 -0.242716 -4.98039 89.8242 -3.89189 -107.59 -5.34813 -1.25947e-06 -3.79883e-06 -68.1649 3.99214 -27.6217 -24.3289 0.000322201 -8.65921e-06 18.967 -10.4461 -117.825 -22.2915 -0.000108084 -4.47941e-06 39.5441 5.62968 -13.2089 -2.19248 -6.46944 -1.22534e-07 177.511 9.01373 -65.0371 39.0811 -6.73843e-06 -1.23785e-05 -0.763506 -0.307829 110.455 40.9854 -6.48686e-06 -1.26872e-05 8.44112 -14.8847 -48.5203 11.7543 -2.30145e-07 3.05095e-06 0.376746 -0.450442 -20.8568 -2.19251 6.46944 -1.45247e-06 -178.472 6.83295 172.223 -39.0811 -0.00228153 -0.0401928 0.0723451 -0.0576029 31.9998 -40.9854 7.72618e-06 5.99936e-06 -0.499337 -5.51569 -77.0102 -11.7543 -5.6619e-06 -5.58687e-06 0.56805 -0.987395 -26.2488 
0 0 0 0 0 -0 -165.722 90.8588 -409.659 95.4613 0.133822 -13.7063 15.7357 5.1072e-06 -5.51765e-07 152.168 81.1726 -154.227 8.98455 -0.406207 -4.3199e-07 0.810018 15.7323 -4.24773 16.3773 -1.3905e-06 -6.99897e-07 -9.62856 6.16296 -1.71218 6.45672 -1.25837e-06 -1.02172e-07 -0.557538 -3.97443 -2.00983 12.9942 -0.242716 4.98039 -87.879 -5.65336 -84.3939 5.34809 -7.22636e-06 -6.2814e-07 -65.5332 11.9088 40.3325 24.3286 1.87007e-05 4.90208e-06 24.5172 -14.127 -118.18 22.2916 -9.88446e-07 4.63217e-06 25.5995 5.22154 2.14832 12.9945 -0.242716 -4.98039 89.8348 -4.93098 -106.922 -5.34813 -1.25947e-06 -3.79883e-06 -70.8194 2.5123 -26.0717 -24.3289 0.000322201 -8.65921e-06 12.6973 -9.1451 -125.2 -22.2915 -0.000108084 -4.47941e-06 42.4481 5.57126 -9.9818 -2.19248 -6.46944 -1.22534e-07 174.577 13.3457 -64.2054 39.0811 -6.73843e-06 -1.23785e-05 -0.45688 -0.0452734 93.3184 40.9854 -6.48686e-06 -1.26872e-05 7.57782 -15.2599 -52.2485 11.7543 -2.30145e-07 3.05095e-06 0.422515 -0.510115 -21.4046 -2.19251 6.46944 -1.45247e-06 177.356 8.56902 176.014 -39.0811 -0.00228153 -0.0401928 0.0291223 -0.0132973 24.0222 -40.9854 7.72618e-06 5.99936e-06 0.467112 -7.02325 -58.6792 -11.7543 -5.6619e-06 -5.58687e-06 1.96465 -2.88035 -36.0361 
0 0 0 0 0 -0 -165.298 93.8575 -402.416 95.5077 1.8409 -14.8869 15.7357 5.1072e-06 -5.51765e-07 161.745 80.8331 -163.675 8.98455 -0.406207 -4.3199e-07 -1.74574 17.567 -3.61144 16.3773 -1.3905e-06 -6.99897e-07 -9.37978 4.09077 0.0496016 6.45672 -1.25837e-06 -1.02172e-07 3.59946 -4.67 1.13622 12.9942 -0.242716 4.98039 -87.5393 -7.03296 -85.6606 5.34809 -7.22636e-06 -6.2814e-07 -67.1893 13.6204 42.6773 24.3286 1.87007e-05 4.90207e-06 21.8298 -13.9826 -121.109 22.2916 -9.88446e-07 4.63217e-06 27.4895 5.23809 1.74466 12.9945 -0.242716 -4.98039 89.9375 -4.61058 -105.776 -5.34813 -1.25947e-06 -3.79883e-06 -72.568 4.46241 -20.0248 -24.3289 0.000322201 -8.65921e-06 12.2431 -9.97298 -128.59 -22.2915 -0.000108084 -4.47941e-06 44.3783 5.61183 -12.1268 -2.19248 -6.46944 -1.22533e-07 176.369 15.7734 -57.4904 39.0811 -6.73843e-06 -1.23785e-05 -0.165944 0.0432269 71.0093 40.9854 -6.48686e-06 -1.26872e-05 6.30245 -9.3705 -53.7283 11.7543 -2.30145e-07 3.05095e-06 0.431852 -0.522419 -21.5171 -2.19251 6.46944 -1.45247e-06 176.499 13.2222 176.962 -39.0811 -0.00228153 -0.0401928 0.0448888 -0.0642648 22.7781 -40.9854 7.72618e-06 5.99936e-06 1.38682 -4.38025 -41.0422 -11.7543 -5.6619e-06 -5.58687e-06 1.89593 -2.73322 -35.1354 
